<?xml version="1.0" encoding="UTF-8"?>
<svg version="1.1" xmlns="http://www.w3.org/2000/svg" width="533" height="533">
<path d="M0 0 C1.52930649 0.00506058 1.52930649 0.00506058 3.08950806 0.01022339 C19.62281576 0.08908782 35.59533811 0.96783883 51.8125 4.4375 C53.55152588 4.8075415 53.55152588 4.8075415 55.32568359 5.18505859 C93.38438784 13.53940831 128.61032398 29.02603123 159.8125 52.4375 C160.7418335 53.13141846 160.7418335 53.13141846 161.68994141 53.83935547 C170.56582112 60.51225463 178.82070152 67.7336078 186.8125 75.4375 C187.36856934 75.97165527 187.92463867 76.50581055 188.49755859 77.05615234 C195.81345463 84.12013805 202.59153215 91.37249739 208.8125 99.4375 C209.47451416 100.27692139 209.47451416 100.27692139 210.14990234 101.13330078 C222.66066854 117.01515447 233.29396088 134.10205706 241.8125 152.4375 C242.29662354 153.44997803 242.29662354 153.44997803 242.79052734 154.48291016 C250.90213378 171.46868516 256.78327509 189.19464742 261.125 207.5 C261.35525879 208.45390625 261.58551758 209.4078125 261.82275391 210.390625 C266.00273161 228.96285171 267.37327343 247.6363978 267.25 266.625 C267.24493942 268.15430649 267.24493942 268.15430649 267.23977661 269.71450806 C267.16091218 286.24781576 266.28216117 302.22033811 262.8125 318.4375 C262.56580566 319.59685059 262.31911133 320.75620117 262.06494141 321.95068359 C253.71059169 360.00938784 238.22396877 395.23532398 214.8125 426.4375 C214.3498877 427.05705566 213.88727539 427.67661133 213.41064453 428.31494141 C206.73774537 437.19082112 199.5163922 445.44570152 191.8125 453.4375 C191.27834473 453.99356934 190.74418945 454.54963867 190.19384766 455.12255859 C183.12986195 462.43845463 175.87750261 469.21653215 167.8125 475.4375 C167.25288574 475.87884277 166.69327148 476.32018555 166.11669922 476.77490234 C150.23484553 489.28566854 133.14794294 499.91896088 114.8125 508.4375 C113.80002197 508.92162354 113.80002197 508.92162354 112.76708984 509.41552734 C95.78131484 517.52713378 78.05535258 523.40827509 59.75 527.75 C58.79609375 527.98025879 57.8421875 528.21051758 56.859375 528.44775391 C38.28714829 532.62773161 19.6136022 533.99827343 0.625 533.875 C-0.90430649 533.86993942 -0.90430649 533.86993942 -2.46450806 533.86477661 C-18.99781576 533.78591218 -34.97033811 532.90716117 -51.1875 529.4375 C-52.92652588 529.0674585 -52.92652588 529.0674585 -54.70068359 528.68994141 C-92.75938784 520.33559169 -127.98532398 504.84896877 -159.1875 481.4375 C-159.80705566 480.9748877 -160.42661133 480.51227539 -161.06494141 480.03564453 C-169.94082112 473.36274537 -178.19570152 466.1413922 -186.1875 458.4375 C-186.74356934 457.90334473 -187.29963867 457.36918945 -187.87255859 456.81884766 C-195.18845463 449.75486195 -201.96653215 442.50250261 -208.1875 434.4375 C-208.62884277 433.87788574 -209.07018555 433.31827148 -209.52490234 432.74169922 C-222.03566854 416.85984553 -232.66896088 399.77294294 -241.1875 381.4375 C-241.67162354 380.42502197 -241.67162354 380.42502197 -242.16552734 379.39208984 C-250.27713378 362.40631484 -256.15827509 344.68035258 -260.5 326.375 C-260.73025879 325.42109375 -260.96051758 324.4671875 -261.19775391 323.484375 C-265.37773161 304.91214829 -266.74827343 286.2386022 -266.625 267.25 C-266.62162628 266.23046234 -266.61825256 265.21092468 -266.61477661 264.16049194 C-266.53591218 247.62718424 -265.65716117 231.65466189 -262.1875 215.4375 C-261.94080566 214.27814941 -261.69411133 213.11879883 -261.43994141 211.92431641 C-253.08559169 173.86561216 -237.59896877 138.63967602 -214.1875 107.4375 C-213.7248877 106.81794434 -213.26227539 106.19838867 -212.78564453 105.56005859 C-206.11274537 96.68417888 -198.8913922 88.42929848 -191.1875 80.4375 C-190.65334473 79.88143066 -190.11918945 79.32536133 -189.56884766 78.75244141 C-182.50486195 71.43654537 -175.25250261 64.65846785 -167.1875 58.4375 C-166.62788574 57.99615723 -166.06827148 57.55481445 -165.49169922 57.10009766 C-149.60984553 44.58933146 -132.52294294 33.95603912 -114.1875 25.4375 C-113.51251465 25.11475098 -112.8375293 24.79200195 -112.14208984 24.45947266 C-95.15631484 16.34786622 -77.43035258 10.46672491 -59.125 6.125 C-58.17109375 5.89474121 -57.2171875 5.66448242 -56.234375 5.42724609 C-37.66214829 1.24726839 -18.9886022 -0.12327343 0 0 Z " fill="#070809" transform="translate(266.1875,-0.4375)"/>
<path d="M0 0 C0.66 0 1.32 0 2 0 C3.32177734 1.86987305 3.32177734 1.86987305 4.8359375 4.51171875 C5.39949951 5.48665283 5.96306152 6.46158691 6.54370117 7.46606445 C7.14802979 8.52913818 7.7523584 9.59221191 8.375 10.6875 C9.00059814 11.77442139 9.62619629 12.86134277 10.27075195 13.98120117 C12.18806428 17.31653333 14.09499641 20.65762548 16 24 C17.06865665 25.86738999 18.13764348 27.73459109 19.20703125 29.6015625 C21.18728437 33.0617098 23.16320411 36.52428692 25.13671875 39.98828125 C27.90285237 44.83814192 30.69751705 49.67107542 33.5 54.5 C37.77035718 61.859893 42.00461482 69.23964976 46.21411133 76.63452148 C49.13620939 81.76131629 52.0852665 86.8715124 55.05859375 91.96875 C56.09477102 93.74927606 57.13061165 95.5299976 58.16638184 97.3107605 C59.17023192 99.03287642 60.17931013 100.75194135 61.18847656 102.47094727 C61.80045898 103.52338623 62.41244141 104.5758252 63.04296875 105.66015625 C63.58977295 106.59480713 64.13657715 107.52945801 64.69995117 108.49243164 C66.8071145 112.55678367 66.8071145 112.55678367 67 115 C66.01538086 117.42260742 66.01538086 117.42260742 64.46484375 120.10546875 C63.90216797 121.08966797 63.33949219 122.07386719 62.75976562 123.08789062 C62.15841797 124.11076172 61.55707031 125.13363281 60.9375 126.1875 C60.36322266 127.19103516 59.78894531 128.19457031 59.19726562 129.22851562 C55.68735396 135.31051589 51.97957518 141.21475054 48 147 C45.0411821 143.46920369 42.65776326 139.88607618 40.390625 135.87890625 C39.89486969 135.00708961 39.89486969 135.00708961 39.38909912 134.11766052 C38.33862306 132.26823497 37.29417088 130.41549126 36.25 128.5625 C35.5655107 127.35458725 34.8806176 126.14690322 34.1953125 124.93945312 C32.81762911 122.5109717 31.44181454 120.08144617 30.06738281 117.65112305 C24.36790507 107.57894391 18.59457471 97.55129195 12.75 87.5625 C11.0025958 84.57421285 9.25584242 81.58557999 7.51367188 78.59423828 C6.57785895 76.99037568 5.63738875 75.3892081 4.68945312 73.79248047 C2 69.21828317 2 69.21828317 2 67 C1.34 67 0.68 67 0 67 C-0.226875 67.80824219 -0.45375 68.61648437 -0.6875 69.44921875 C-2.32983892 73.89233207 -4.58780451 77.74861029 -7 81.8125 C-7.72388916 83.05132935 -7.72388916 83.05132935 -8.46240234 84.31518555 C-10.91305888 88.50142436 -13.39750718 92.66557268 -15.9140625 96.8125 C-16.37039062 97.57071045 -16.82671875 98.3289209 -17.296875 99.11010742 C-18.16069685 100.54255906 -19.03268718 101.97012722 -19.9140625 103.3918457 C-20.3059375 104.04241943 -20.6978125 104.69299316 -21.1015625 105.36328125 C-21.44525879 105.92313721 -21.78895508 106.48299316 -22.14306641 107.05981445 C-23.77689192 110.75896298 -24.46057597 113.74108446 -23.05053711 117.59521484 C-22.2965564 118.88999756 -22.2965564 118.88999756 -21.52734375 120.2109375 C-20.9648291 121.19553955 -20.40231445 122.1801416 -19.82275391 123.19458008 C-19.20062012 124.24411865 -18.57848633 125.29365723 -17.9375 126.375 C-16.98109619 128.03341919 -16.98109619 128.03341919 -16.00537109 129.7253418 C-14.6720254 132.03156759 -13.33363252 134.33344587 -11.98291016 136.62939453 C-10.1493945 139.7460551 -8.32816998 142.86946659 -6.51171875 145.99609375 C-4.22627016 149.92502209 -1.93172805 153.8484703 0.3671875 157.76953125 C4.29477284 164.4846082 8.14972692 171.2404598 12 178 C17.01309387 186.8001062 22.06802063 195.5736711 27.1875 204.3125 C32.21041196 212.88951233 37.13965819 221.51426982 42.01391602 230.17651367 C46.33819348 237.85274977 50.72031212 245.49474136 55.125 253.125 C55.76493896 254.23407715 56.40487793 255.3431543 57.06420898 256.48583984 C60.29549812 262.11774059 60.29549812 262.11774059 63.69482422 267.64794922 C65 270 65 270 65 273 C23.42 273 -18.16 273 -61 273 C-66.94 262.605 -66.94 262.605 -73 252 C-74.98 248.7 -76.96 245.4 -79 242 C-79 241.01 -79 240.02 -79 239 C-50.62 239 -22.24 239 7 239 C-1.22311263 224.17639014 -1.22311263 224.17639014 -9.6875 209.5 C-10.89244138 207.44300951 -12.09684983 205.38570677 -13.30078125 203.328125 C-13.91002441 202.28720703 -14.51926758 201.24628906 -15.14697266 200.17382812 C-23.51945684 185.83360489 -31.76800418 171.42119172 -40 157 C-45.13084804 148.01239655 -50.26830129 139.02866216 -55.43188477 130.05981445 C-56.41982549 128.34321049 -57.40621607 126.62571468 -58.39257812 124.90820312 C-58.98361328 123.88275391 -59.57464844 122.85730469 -60.18359375 121.80078125 C-60.70493896 120.89497314 -61.22628418 119.98916504 -61.76342773 119.0559082 C-62.83874515 117.08075959 -62.83874515 117.08075959 -64 116 C-63.96910359 108.60545801 -59.89364826 103.04709277 -56.1875 96.875 C-55.4994081 95.70971743 -54.8125751 94.54369064 -54.12695312 93.37695312 C-52.74192886 91.0217416 -51.35206047 88.66950343 -49.95849609 86.31933594 C-47.25676903 81.74034302 -44.62471111 77.12341483 -42 72.5 C-30.99736008 53.20675643 -19.89005297 33.97176947 -8.640625 14.82128906 C-7.4476951 12.76987568 -6.27299045 10.70783065 -5.109375 8.63964844 C-4.48546875 7.53911133 -3.8615625 6.43857422 -3.21875 5.3046875 C-2.65091797 4.29132324 -2.08308594 3.27795898 -1.49804688 2.23388672 C-0.75651367 1.12811279 -0.75651367 1.12811279 0 0 Z " fill="#F1F1F1" transform="translate(271,78)"/>
<path d="M0 0 C0.66 0 1.32 0 2 0 C3.12573242 1.55371094 3.12573242 1.55371094 4.35546875 3.734375 C4.81018555 4.53077393 5.26490234 5.32717285 5.73339844 6.14770508 C6.21325195 7.0064624 6.69310547 7.86521973 7.1875 8.75 C8.17507862 10.49909483 9.16335995 12.24779307 10.15234375 13.99609375 C10.63558105 14.85315918 11.11881836 15.71022461 11.61669922 16.59326172 C12.80870513 18.66717528 14.03841887 20.70111258 15.31640625 22.72265625 C15.95449219 23.74230469 16.59257812 24.76195312 17.25 25.8125 C17.81203125 26.68519531 18.3740625 27.55789062 18.953125 28.45703125 C20.3608587 31.87656348 20.06647531 33.45808811 19 37 C17.62770294 39.85578965 16.01748678 42.5425376 14.375 45.25 C13.36779583 46.94880763 12.3613256 48.64805054 11.35546875 50.34765625 C10.81325684 51.25789551 10.27104492 52.16813477 9.71240234 53.10595703 C6.65576368 58.27182455 3.67812118 63.48323845 0.6875 68.6875 C-5.96849025 80.23557946 -12.66726384 91.7582901 -19.3984375 103.26269531 C-20.45374452 105.06636944 -21.50844688 106.8703975 -22.5625 108.67480469 C-23.97749172 111.0966883 -25.3945707 113.51733537 -26.8125 115.9375 C-27.22733643 116.647854 -27.64217285 117.35820801 -28.06958008 118.09008789 C-30.88473701 122.88473701 -30.88473701 122.88473701 -32 124 C-34.8116338 124.08861992 -37.59858255 124.11522355 -40.41015625 124.09765625 C-41.25219101 124.0962413 -42.09422577 124.09482635 -42.96177673 124.09336853 C-45.66205335 124.08775263 -48.36224828 124.07519748 -51.0625 124.0625 C-52.88867068 124.05748705 -54.71484266 124.05292379 -56.54101562 124.04882812 C-61.02737542 124.03777804 -65.51367384 124.02050279 -70 124 C-68.85520379 120.34735298 -67.63008976 117.04398799 -65.70703125 113.734375 C-65.2495752 112.9405542 -64.79211914 112.1467334 -64.32080078 111.32885742 C-63.82306152 110.47783447 -63.32532227 109.62681152 -62.8125 108.75 C-62.28640137 107.84032471 -61.76030273 106.93064941 -61.21826172 105.9934082 C-60.0791562 104.02445883 -58.9377957 102.05681268 -57.79443359 100.09033203 C-55.97628876 96.95916505 -54.1683296 93.8223268 -52.36328125 90.68359375 C-45.70768418 79.11396939 -39.00746879 67.5710749 -32.27441406 56.04638672 C-21.40427263 37.42889912 -10.67484738 18.73002624 0 0 Z " fill="#F5F5F5" transform="translate(185,227)"/>
<path d="M0 0 C0.66 0 1.32 0 2 0 C2.28496338 0.49999512 2.56992676 0.99999023 2.86352539 1.51513672 C12.14257856 17.78973324 21.49906631 34.01911971 30.87207031 50.23974609 C42.58312155 70.50745009 42.58312155 70.50745009 48.1484375 80.26171875 C48.66685211 81.17016037 48.66685211 81.17016037 49.19573975 82.09695435 C50.91165515 85.10459418 52.6258661 88.11319061 54.33789062 91.12304688 C57.24371506 96.22194636 60.16259839 101.30735349 63.1953125 106.33203125 C63.66541748 107.11312256 64.13552246 107.89421387 64.61987305 108.69897461 C65.46166271 110.08916754 66.31133834 111.47463581 67.17114258 112.85375977 C69.44661538 116.60972116 70.3933471 119.682081 71 124 C65.87772237 124.32320225 60.76144152 124.55796968 55.63134766 124.71411133 C53.89038738 124.77920754 52.1501306 124.86773109 50.41162109 124.98071289 C38.94430545 125.70686669 38.94430545 125.70686669 34 124 C29.98444739 120.224498 28.11527751 116.02883311 26 111 C25.06632638 109.33542967 24.10908926 107.68369451 23.12109375 106.05078125 C22.22450495 104.47252126 21.33002289 102.89306286 20.4375 101.3125 C19.40548897 99.49578629 18.37290941 97.67939546 17.33984375 95.86328125 C16.53135986 94.44136475 16.53135986 94.44136475 15.70654297 92.99072266 C12.65827528 87.64862262 9.57774148 82.32515561 6.5 77 C1.28062773 67.96834431 -3.91525946 58.92398262 -9.05664062 49.84765625 C-9.50458984 49.06003906 -9.95253906 48.27242188 -10.4140625 47.4609375 C-10.83848633 46.71166992 -11.26291016 45.96240234 -11.70019531 45.19042969 C-13.39425276 42.33560561 -15.26766474 39.61240444 -17.19287109 36.90869141 C-18.33634093 34.2046239 -17.87066374 32.78312525 -17 30 C-16.0481831 28.03926407 -15.02211584 26.11372635 -13.9453125 24.21875 C-13.33042969 23.12949219 -12.71554687 22.04023438 -12.08203125 20.91796875 C-11.43621094 19.79003906 -10.79039062 18.66210938 -10.125 17.5 C-9.48691406 16.37207031 -8.84882813 15.24414062 -8.19140625 14.08203125 C-6.47166974 11.04825807 -4.74607341 8.01868925 -3 5 C-2.21665283 3.58364258 -2.21665283 3.58364258 -1.41748047 2.13867188 C-0.94971191 1.43291016 -0.48194336 0.72714844 0 0 Z " fill="#F0F0F0" transform="translate(357,227)"/>
<path d="M0 0 C2.5100694 3.20516555 4.61669346 6.55906 6.6875 10.0625 C7.62142578 11.62677734 7.62142578 11.62677734 8.57421875 13.22265625 C10 16 10 16 10 19 C-31.58 19 -73.16 19 -116 19 C-116 18.67 -116 18.34 -116 18 C-115.24689041 17.98969254 -114.49378082 17.97938507 -113.71784973 17.96876526 C-106.61143499 17.87068131 -99.50510143 17.76815164 -92.39882374 17.66066074 C-88.74564852 17.60555809 -85.09246512 17.55215885 -81.43920898 17.50268555 C-77.91190059 17.45485462 -74.38468524 17.40250602 -70.85748863 17.34705925 C-68.86066974 17.31683966 -66.86378226 17.29126716 -64.86689758 17.26576233 C-63.03556526 17.2358445 -63.03556526 17.2358445 -61.16723633 17.20532227 C-59.55840324 17.18200584 -59.55840324 17.18200584 -57.91706848 17.15821838 C-55.17485955 17.00948418 -52.67968464 16.5718783 -50 16 C-47.84319168 15.94262441 -45.68463824 15.93809366 -43.52734375 15.97265625 C-42.29822266 15.98490234 -41.06910156 15.99714844 -39.80273438 16.00976562 C-37.22194978 16.04497593 -34.64121506 16.08405033 -32.06054688 16.12695312 C-30.83271484 16.13791016 -29.60488281 16.14886719 -28.33984375 16.16015625 C-27.21956787 16.17699463 -26.09929199 16.19383301 -24.94506836 16.21118164 C-22.01108098 16.00079458 -20.54526768 15.34070129 -18 14 C-15.25 14.875 -15.25 14.875 -13 16 C-13 15.34 -13 14.68 -13 14 C-12.01 13.67 -11.02 13.34 -10 13 C-9.67 12.01 -9.34 11.02 -9 10 C-8.37609375 9.86722656 -7.7521875 9.73445313 -7.109375 9.59765625 C-4.80519254 9.18117314 -4.80519254 9.18117314 -3.515625 6.93359375 C-3.09796875 6.10988281 -2.6803125 5.28617187 -2.25 4.4375 C-1.82203125 3.61121094 -1.3940625 2.78492188 -0.953125 1.93359375 C-0.48132813 0.97646484 -0.48132813 0.97646484 0 0 Z " fill="#CCCCCD" transform="translate(326,332)"/>
<path d="M0 0 C3.84681232 4.46815018 6.73627543 9.35983017 9.6875 14.4375 C10.18572266 15.27087891 10.68394531 16.10425781 11.19726562 16.96289062 C11.67228516 17.77822266 12.14730469 18.59355469 12.63671875 19.43359375 C13.06686279 20.16634521 13.49700684 20.89909668 13.94018555 21.65405273 C15 24 15 24 16 30 C3.79 30 -8.42 30 -21 30 C-21.33 29.34 -21.66 28.68 -22 28 C-16.39 28.33 -10.78 28.66 -5 29 C-5 28.34 -5 27.68 -5 27 C-3.34928604 25.97388051 -1.68029994 24.97691857 0 24 C0.53625 23.443125 1.0725 22.88625 1.625 22.3125 C3 21 3 21 6 21 C5.67 18.36 5.34 15.72 5 13 C4.01 14.485 4.01 14.485 3 16 C2.34 16 1.68 16 1 16 C0.67 13.69 0.34 11.38 0 9 C0.99 9 1.98 9 3 9 C2.34 8.67 1.68 8.34 1 8 C0.40644386 5.35139573 0.25790731 2.70802678 0 0 Z " fill="#BEBEBE" transform="translate(412,321)"/>
<path d="M0 0 C2.5100694 3.20516555 4.61669346 6.55906 6.6875 10.0625 C7.62142578 11.62677734 7.62142578 11.62677734 8.57421875 13.22265625 C10 16 10 16 10 19 C-31.58 19 -73.16 19 -116 19 C-116 18.67 -116 18.34 -116 18 C-75.74 18 -35.48 18 6 18 C6 16.02 6 14.04 6 12 C5.05125 12.185625 4.1025 12.37125 3.125 12.5625 C0 13 0 13 -2 12 C-2 10.02 -2 8.04 -2 6 C-1.34 6 -0.68 6 0 6 C0.33 5.34 0.66 4.68 1 4 C0.34 4 -0.32 4 -1 4 C-0.67 2.68 -0.34 1.36 0 0 Z " fill="#A8A8A8" transform="translate(326,332)"/>
<path d="M0 0 C3.77461064 4.35667676 6.47794876 9.10468628 9.25 14.125 C9.93835938 15.34123047 9.93835938 15.34123047 10.640625 16.58203125 C11.07375 17.36191406 11.506875 18.14179688 11.953125 18.9453125 C12.34661133 19.65187988 12.74009766 20.35844727 13.14550781 21.08642578 C14 23 14 23 14 26 C13.34 26 12.68 26 12 26 C12 26.66 12 27.32 12 28 C11.34 28 10.68 28 10 28 C10 27.34 10 26.68 10 26 C9.34 25.67 8.68 25.34 8 25 C8.66 25 9.32 25 10 25 C9.34 23.68 8.68 22.36 8 21 C7.34 21 6.68 21 6 21 C6.020625 19.906875 6.04125 18.81375 6.0625 17.6875 C6.18544452 14.05615809 6.18544452 14.05615809 5 11 C4.01 11.33 3.02 11.66 2 12 C2 10.68 2 9.36 2 8 C1.34 8 0.68 8 0 8 C0 5.36 0 2.72 0 0 Z " fill="#C2C2C3" transform="translate(312,308)"/>
<path d="M0 0 C0.66 0.33 1.32 0.66 2 1 C1.30058404 4.14737182 0.23921302 7.02588876 -1 10 C5.77924694 11.18462612 12.56946946 11.33394034 19.4375 11.5625 C20.64599609 11.60568359 21.85449219 11.64886719 23.09960938 11.69335938 C26.06630606 11.79889404 29.03307902 11.90100714 32 12 C32 12.33 32 12.66 32 13 C19.46 13 6.92 13 -6 13 C-4.30119563 7.90358688 -2.69062201 4.48437002 0 0 Z " fill="#C0C0C0" transform="translate(121,338)"/>
<path d="M0 0 C0 1.98 0 3.96 0 6 C-7.26 6 -14.52 6 -22 6 C-22 5.67 -22 5.34 -22 5 C-20.56496445 4.63597631 -19.12683494 4.28413409 -17.6875 3.9375 C-16.88699219 3.74027344 -16.08648437 3.54304688 -15.26171875 3.33984375 C-13 3 -13 3 -10 4 C-10 3.34 -10 2.68 -10 2 C-9.01 2 -8.02 2 -7 2 C-6.67 1.34 -6.34 0.68 -6 0 C-3 -1 -3 -1 0 0 Z " fill="#B1B1B1" transform="translate(332,344)"/>
<path d="M0 0 C3.50778211 4.20933853 7 9.4255442 7 15 C0.4 15 -6.2 15 -13 15 C-13 14.67 -13 14.34 -13 14 C-8.71 14 -4.42 14 0 14 C0 13.01 0 12.02 0 11 C0.66 11 1.32 11 2 11 C1.67 9.9275 1.34 8.855 1 7.75 C0 4 0 4 0 0 Z " fill="#8A8B8A" transform="translate(421,336)"/>
<path d="M0 0 C4.22323575 1.40774525 5.02766142 3.82742106 7.05078125 7.63671875 C8.31815469 10.79211353 8.18749318 12.83335153 7 16 C6.34 16.33 5.68 16.66 5 17 C3.35 13.37 1.7 9.74 0 6 C0.66 5.67 1.32 5.34 2 5 C1.34 3.35 0.68 1.7 0 0 Z " fill="#E6E6E6" transform="translate(197,248)"/>
<path d="M0 0 C4.88764045 5.86516854 4.88764045 5.86516854 6 9 C5.62925373 12.05865675 4.76554463 13.35168306 3 16 C2.34 16 1.68 16 1 16 C0.67 13.69 0.34 11.38 0 9 C0.99 9 1.98 9 3 9 C2.34 8.67 1.68 8.34 1 8 C0.40644386 5.35139573 0.25790731 2.70802678 0 0 Z " fill="#C0C1C0" transform="translate(412,321)"/>
<path d="M0 0 C1.32 0 2.64 0 4 0 C4.66 0.99 5.32 1.98 6 3 C6.33 2.34 6.66 1.68 7 1 C7.66 1.33 8.32 1.66 9 2 C8.814375 2.61875 8.62875 3.2375 8.4375 3.875 C7.76313824 6.04160178 7.76313824 6.04160178 9 8 C8.34 8 7.68 8 7 8 C7 8.66 7 9.32 7 10 C2.57320993 8.52440331 2.08567304 6.09942632 0 2 C0 1.34 0 0.68 0 0 Z " fill="#DDDDDD" transform="translate(195,323)"/>
<path d="M0 0 C0.99 0.33 1.98 0.66 3 1 C2.5 3.375 2.5 3.375 1 6 C-3.80051343 7.6801797 -7.89634567 8.25518272 -13 8 C-12.67 7.01 -12.34 6.02 -12 5 C-8.37673261 3.7922442 -7.35853631 4.45688872 -4 6 C-4 5.34 -4 4.68 -4 4 C-3.01 3.67 -2.02 3.34 -1 3 C-0.67 2.01 -0.34 1.02 0 0 Z " fill="#CBCBCB" transform="translate(317,342)"/>
<path d="M0 0 C3 3.625 3 3.625 3 7 C-5.58 7 -14.16 7 -23 7 C-23 6.67 -23 6.34 -23 6 C-15.74 6 -8.48 6 -1 6 C-0.67 4.02 -0.34 2.04 0 0 Z " fill="#757575" transform="translate(333,344)"/>
<path d="M0 0 C2.40820361 2.40820361 2.68097423 3.65022937 3 7 C2.02269781 9.70637529 1.59487555 10.70256222 -1 12 C-3 9 -3 9 -2.75 6.5625 C-2.05282249 4.18047686 -1.20252143 2.16453858 0 0 Z " fill="#E6E6E6" transform="translate(342,253)"/>
<path d="M0 0 C3 1 3 1 4.8125 3.25 C6 6 6 6 5.1875 8.8125 C4.795625 9.534375 4.40375 10.25625 4 11 C-0.90322581 6.70967742 -0.90322581 6.70967742 -1.375 3.25 C-1 1 -1 1 0 0 Z " fill="#141414" transform="translate(199,334)"/>
<path d="M0 0 C3.32957948 2.59980864 3.61761712 5.11064555 4.1875 9.1875 C4.42533203 10.81751953 4.42533203 10.81751953 4.66796875 12.48046875 C4.77753906 13.31191406 4.88710938 14.14335937 5 15 C4.34 15 3.68 15 3 15 C3 15.99 3 16.98 3 18 C2.34 18 1.68 18 1 18 C0.97294271 16.22925083 0.95357805 14.45838289 0.9375 12.6875 C0.92589844 11.70136719 0.91429687 10.71523438 0.90234375 9.69921875 C1 7 1 7 2 4 C1.34 4 0.68 4 0 4 C0 2.68 0 1.36 0 0 Z " fill="#A7A8A7" transform="translate(418,332)"/>
<path d="M0 0 C2.23960447 2.87949147 4.29864224 5.76742026 6 9 C5.67 9.66 5.34 10.32 5 11 C4.21625 10.67 3.4325 10.34 2.625 10 C0.15667503 8.88133489 0.15667503 8.88133489 -2 9 C-1.34 6.03 -0.68 3.06 0 0 Z " fill="#D0D0D0" transform="translate(406,310)"/>
<path d="M0 0 C3.09592835 3.5087188 4.74194623 6.49197399 6 11 C4.68 11.33 3.36 11.66 2 12 C2 10.68 2 9.36 2 8 C1.34 8 0.68 8 0 8 C0 5.36 0 2.72 0 0 Z " fill="#D0D0D0" transform="translate(312,308)"/>
<path d="M0 0 C3 1 3 1 4 3 C4.99 3 5.98 3 7 3 C7.33 6.63 7.66 10.26 8 14 C5.64662777 10.86217036 4.00315795 8.22270281 2.3125 4.75 C1.65701172 3.41195312 1.65701172 3.41195312 0.98828125 2.046875 C0.66214844 1.37140625 0.33601563 0.6959375 0 0 Z " fill="#E1E1E1" transform="translate(283,163)"/>
<path d="M0 0 C0.99 0 1.98 0 3 0 C6.125 6.625 6.125 6.625 5 10 C4.34 10 3.68 10 3 10 C0.96564469 6.27034861 0 4.33094958 0 0 Z " fill="#E5E5E5" transform="translate(269,297)"/>
<path d="M0 0 C2.86724686 0.57344937 3.8614515 0.8614515 6 3 C4.68 5.31 3.36 7.62 2 10 C-0.4294516 6.3558226 -0.16179575 4.28758728 0 0 Z " fill="#171717" transform="translate(350,228)"/>
<path d="M0 0 C1.25 1.5625 1.25 1.5625 2 4 C1.08641064 6.6482527 -0.21755708 8.84290348 -2 11 C-4.25 11.9375 -4.25 11.9375 -6 12 C-4.43358249 7.69235185 -2.31663844 3.93828536 0 0 Z " fill="#191919" transform="translate(336,195)"/>
<path d="M0 0 C0.33 0 0.66 0 1 0 C1.33 2.31 1.66 4.62 2 7 C1.38125 7.061875 0.7625 7.12375 0.125 7.1875 C-2.27761141 7.828919 -2.27761141 7.828919 -3.25 10.5625 C-3.4975 11.366875 -3.745 12.17125 -4 13 C-4.66 12.67 -5.32 12.34 -6 12 C-4.43358249 7.69235185 -2.31663844 3.93828536 0 0 Z " fill="#262626" transform="translate(265,156)"/>
<path d="M0 0 C2 3 2 3 2 6 C-4.6 6 -11.2 6 -18 6 C-18 5.67 -18 5.34 -18 5 C-12.06 4.67 -6.12 4.34 0 4 C0 2.68 0 1.36 0 0 Z " fill="#6D6D6D" transform="translate(426,345)"/>
<path d="M0 0 C2.23960447 2.87949147 4.29864224 5.76742026 6 9 C5.67 9.66 5.34 10.32 5 11 C3.35 10.01 1.7 9.02 0 8 C0.33 6.68 0.66 5.36 1 4 C0.34 4 -0.32 4 -1 4 C-0.67 2.68 -0.34 1.36 0 0 Z " fill="#9B9D9E" transform="translate(326,332)"/>
<path d="M0 0 C0.99 0.99 1.98 1.98 3 3 C1.68 5.31 0.36 7.62 -1 10 C-1.66 9.67 -2.32 9.34 -3 9 C-2.7215625 7.824375 -2.7215625 7.824375 -2.4375 6.625 C-1.74037734 4.02910225 -1.74037734 4.02910225 -3 2 C-2.01 1.34 -1.02 0.68 0 0 Z " fill="#EBEBEB" transform="translate(176,304)"/>
<path d="M0 0 C0.99 0 1.98 0 3 0 C2.38461538 5.53846154 2.38461538 5.53846154 0.4375 7.875 C-0.036875 8.24625 -0.51125 8.6175 -1 9 C-1.625 6.1875 -1.625 6.1875 -2 3 C-1.34 2.01 -0.68 1.02 0 0 Z " fill="#EEEEEE" transform="translate(199,263)"/>
<path d="M0 0 C2.10517651 2.56282357 3.78884685 4.62154967 4 8 C2.5625 10.25 2.5625 10.25 1 12 C-1.83022097 8.00439392 -0.76210446 4.57262677 0 0 Z " fill="#D7D7D7" transform="translate(334,185)"/>
<path d="M0 0 C1.5625 1.6875 1.5625 1.6875 3 4 C2.6875 6.75 2.6875 6.75 2 9 C0.0625 8.25 0.0625 8.25 -2 7 C-2.75 4.875 -2.75 4.875 -3 3 C-2.34 3 -1.68 3 -1 3 C-0.67 2.01 -0.34 1.02 0 0 Z " fill="#EAEAEA" transform="translate(296,119)"/>
<path d="M0 0 C2.50037734 2.17424117 3.43628586 3.73045798 4 7 C3.01 7.33 2.02 7.66 1 8 C0.01 6.68 -0.98 5.36 -2 4 C-1.34 2.68 -0.68 1.36 0 0 Z " fill="#E6E6E6" transform="translate(271,237)"/>
<path d="M0 0 C1.9375 0.8125 1.9375 0.8125 4 2 C4.33 2.99 4.66 3.98 5 5 C4.34 6.32 3.68 7.64 3 9 C1.68 6.36 0.36 3.72 -1 1 C-0.67 0.67 -0.34 0.34 0 0 Z " fill="#E2E2E2" transform="translate(308,204)"/>
<path d="M0 0 C0.99 0.33 1.98 0.66 3 1 C2.39816251 3.02045442 1.72693904 5.02111039 1 7 C0.01 7.495 0.01 7.495 -1 8 C-1.33 5.69 -1.66 3.38 -2 1 C-1.34 0.67 -0.68 0.34 0 0 Z " fill="#0E0E0E" transform="translate(280,82)"/>
<path d="M0 0 C1.0625 1.8125 1.0625 1.8125 2 4 C1.67 4.99 1.34 5.98 1 7 C1.38932856 9.14255793 1.38932856 9.14255793 2 11 C1.01 11.495 1.01 11.495 0 12 C-1.75282525 9.31920844 -2.01311136 8.13111361 -1.6875 4.875 C-1 2 -1 2 0 0 Z " fill="#212121" transform="translate(248,185)"/>
<path d="M0 0 C0.66 0.66 1.32 1.32 2 2 C1.34 2.66 0.68 3.32 0 4 C-0.433125 5.2065625 -0.433125 5.2065625 -0.875 6.4375 C-2.14106224 9.32130844 -3.37684406 10.3386679 -6 12 C-4.43358249 7.69235185 -2.31663844 3.93828536 0 0 Z " fill="#D6D6D6" transform="translate(267,85)"/>
<path d="M0 0 C1.32 0.33 2.64 0.66 4 1 C4 1.66 4 2.32 4 3 C4.66 3 5.32 3 6 3 C5.67 4.65 5.34 6.3 5 8 C2.74754119 5.31158141 1.11786042 3.35358125 0 0 Z " fill="#D9D9D9" transform="translate(379,330)"/>
<path d="M0 0 C2.33524782 2.25740623 4.18705073 4.2805761 6 7 C5.625 9.1875 5.625 9.1875 5 11 C2.47650757 7.87567603 0.72743854 4.61939504 -1 1 C-0.67 0.67 -0.34 0.34 0 0 Z " fill="#E3E3E3" transform="translate(236,240)"/>
<path d="M0 0 C1.32 0 2.64 0 4 0 C4.33 1.98 4.66 3.96 5 6 C4.01 6 3.02 6 2 6 C1.34 4.02 0.68 2.04 0 0 Z " fill="#CDCDCD" transform="translate(195,323)"/>
<path d="M0 0 C0.93065133 2.60582371 1.14917407 3.64198224 0.0625 6.25 C-0.4634375 7.11625 -0.4634375 7.11625 -1 8 C-1.99 8 -2.98 8 -4 8 C-4 4 -4 4 -2 1.75 C-1.01 0.88375 -1.01 0.88375 0 0 Z " fill="#E6E6E6" transform="translate(282,312)"/>
<path d="M0 0 C0.66 0.33 1.32 0.66 2 1 C1.37240135 3.92879371 0.41377341 6.36095629 -1 9 C-1.99 9 -2.98 9 -4 9 C-2.80100302 5.9168649 -1.52299523 2.93720508 0 0 Z " fill="#1D1D1D" transform="translate(190,286)"/>
<path d="M0 0 C1.32 0.33 2.64 0.66 4 1 C3.01 2.98 2.02 4.96 1 7 C0.34 7 -0.32 7 -1 7 C-1 6.34 -1 5.68 -1 5 C-1.66 4.67 -2.32 4.34 -3 4 C-2.01 3.67 -1.02 3.34 0 3 C0 2.01 0 1.02 0 0 Z " fill="#EEEEEE" transform="translate(194,272)"/>
<path d="M0 0 C4.42857143 5.14285714 4.42857143 5.14285714 5 9 C4.01 9.33 3.02 9.66 2 10 C0.68373308 6.38026598 0 3.90432869 0 0 Z " fill="#1D1D1D" transform="translate(247,263)"/>
<path d="M0 0 C1.32 1.65 2.64 3.3 4 5 C3.67 5.66 3.34 6.32 3 7 C1.35 6.67 -0.3 6.34 -2 6 C-1.34 4.02 -0.68 2.04 0 0 Z " fill="#171717" transform="translate(231,235)"/>
<path d="M0 0 C3 3.625 3 3.625 3 7 C2.01 7 1.02 7 0 7 C-0.99 5.02 -1.98 3.04 -3 1 C-2.01 0.67 -1.02 0.34 0 0 Z " fill="#151515" transform="translate(327,166)"/>
<path d="M0 0 C0.99 0.66 1.98 1.32 3 2 C3 2.99 3 3.98 3 5 C0.625 6.75 0.625 6.75 -2 8 C-2.66 7.67 -3.32 7.34 -4 7 C-2.68 4.69 -1.36 2.38 0 0 Z " fill="#1B1B1B" transform="translate(157,343)"/>
<path d="M0 0 C0.66 0.33 1.32 0.66 2 1 C2.625 3.5625 2.625 3.5625 3 6 C2.01 5.67 1.02 5.34 0 5 C-0.99 6.485 -0.99 6.485 -2 8 C-2.66 7.67 -3.32 7.34 -4 7 C-2.68 4.69 -1.36 2.38 0 0 Z " fill="#E0E0E0" transform="translate(153,283)"/>
<path d="M0 0 C3.63 0.66 7.26 1.32 11 2 C11 2.33 11 2.66 11 3 C7.37 3 3.74 3 0 3 C0 2.01 0 1.02 0 0 Z " fill="#E1E1E1" transform="translate(116,347)"/>
<path d="M0 0 C1.25541557 3.76624671 0.37061958 5.37188934 -1 9 C-2.5625 7.1875 -2.5625 7.1875 -4 5 C-3.67 4.01 -3.34 3.02 -3 2 C-2.34 2 -1.68 2 -1 2 C-0.67 1.34 -0.34 0.68 0 0 Z " fill="#DDDDDD" transform="translate(209,337)"/>
<path d="M0 0 C0.99 0.33 1.98 0.66 3 1 C3.33 2.65 3.66 4.3 4 6 C3.01 6.33 2.02 6.66 1 7 C0.67 4.69 0.34 2.38 0 0 Z " fill="#CDCFCE" transform="translate(412,330)"/>
<path d="M0 0 C1.65 0.33 3.3 0.66 5 1 C4.67 2.32 4.34 3.64 4 5 C4 4.34 4 3.68 4 3 C3.34 3 2.68 3 2 3 C1.34 4.32 0.68 5.64 0 7 C-1.125 2.25 -1.125 2.25 0 0 Z " fill="#1A1A1A" transform="translate(183,224)"/>
<path d="M0 0 C1.95418308 2.93127462 2.64700993 4.55834679 3 8 C2.34 8.66 1.68 9.32 1 10 C0.01 7.69 -0.98 5.38 -2 3 C-1.34 3 -0.68 3 0 3 C0 2.01 0 1.02 0 0 Z " fill="#161616" transform="translate(320,153)"/>
<path d="M0 0 C1.98 0.66 3.96 1.32 6 2 C5.34 3.65 4.68 5.3 4 7 C0 2.25 0 2.25 0 0 Z " fill="#E3E3E3" transform="translate(347,274)"/>
<path d="M0 0 C2.475 0.495 2.475 0.495 5 1 C4.67 2.98 4.34 4.96 4 7 C2.10786631 4.61426621 0.97608217 2.92824652 0 0 Z " fill="#1E1E1E" transform="translate(285,99)"/>
<path d="M0 0 C1.125 1.625 1.125 1.625 2 4 C1.125 7.25 1.125 7.25 0 10 C-0.66 9.01 -1.32 8.02 -2 7 C-1.125 3.3125 -1.125 3.3125 0 0 Z " fill="#0E100F" transform="translate(425,332)"/>
<path d="M0 0 C0.66 0.33 1.32 0.66 2 1 C1.01 2.98 0.02 4.96 -1 7 C-1.66 6.34 -2.32 5.68 -3 5 C-2.75 2.9375 -2.75 2.9375 -2 1 C-1.34 0.67 -0.68 0.34 0 0 Z " fill="#151515" transform="translate(155,276)"/>
<path d="M0 0 C1.32 0 2.64 0 4 0 C4.625 2.375 4.625 2.375 5 5 C4.34 5.66 3.68 6.32 3 7 C2.01 4.69 1.02 2.38 0 0 Z " fill="#212121" transform="translate(277,246)"/>
<path d="M0 0 C1.89213369 2.38573379 3.02391783 4.07175348 4 7 C3.01 7.33 2.02 7.66 1 8 C1 7.01 1 6.02 1 5 C0.34 5 -0.32 5 -1 5 C-0.67 3.35 -0.34 1.7 0 0 Z " fill="#E0E0E0" transform="translate(319,159)"/>
</svg>
